<?xml version="1.0" encoding="utf-8"?>
<!-- Generator: Adobe Illustrator 24.2.3, SVG Export Plug-In . SVG Version: 6.00 Build 0)  -->
<svg version="1.1" id="Layer_1" xmlns="http://www.w3.org/2000/svg" xmlns:xlink="http://www.w3.org/1999/xlink" x="0px" y="0px"
	 viewBox="0 0 250 250" style="enable-background:new 0 0 250 250;" xml:space="preserve">
<style type="text/css">
	.st0{fill:#FFFFFF;stroke:#000000;stroke-miterlimit:10;}
	.st1{fill:none;stroke:#000000;stroke-miterlimit:10;}
</style>
<g>
	<g>
		<path d="M79.3,130.4h0.8l0.1,0.7l0,0c0.5-0.5,1.3-0.9,2-0.9c1.6,0,2.4,1.2,2.4,3c0,2-1.2,3.1-2.7,3.1c-0.5,0-1.2-0.3-1.7-0.8l0,0
			v1.1v2h-1L79.3,130.4L79.3,130.4z M83.7,133.3c0-1.3-0.5-2.1-1.6-2.1c-0.5,0-1.1,0.3-1.7,0.9v2.9c0.5,0.5,1.2,0.7,1.5,0.7
			C82.9,135.6,83.7,134.7,83.7,133.3z"/>
		<path d="M86.4,134.8c0-1.3,1.2-1.9,4.2-2.2c0-0.8-0.4-1.5-1.5-1.5c-0.8,0-1.5,0.4-2,0.7l-0.4-0.7c0.6-0.4,1.6-0.8,2.6-0.8
			c1.6,0,2.4,0.9,2.4,2.4v3.6h-0.8l-0.1-0.8l0,0c-0.6,0.5-1.5,0.9-2.3,0.9C87.3,136.4,86.4,135.8,86.4,134.8z M90.6,134.7v-1.5
			c-2.5,0.2-3.3,0.7-3.3,1.5c0,0.7,0.6,0.9,1.3,0.9C89.3,135.6,89.9,135.3,90.6,134.7z"/>
		<path d="M93.5,137.3c0-0.5,0.3-0.9,1-1.3l0,0c-0.3-0.2-0.6-0.5-0.6-1c0-0.4,0.3-0.8,0.7-1.1l0,0c-0.4-0.3-0.7-0.8-0.7-1.5
			c0-1.3,1.1-2.1,2.3-2.1c0.3,0,0.6,0,0.9,0.1h2.4v0.8H98c0.3,0.3,0.5,0.7,0.5,1.2c0,1.2-1,2-2.3,2c-0.3,0-0.7-0.1-1-0.2
			c-0.3,0.2-0.5,0.4-0.5,0.7c0,0.5,0.4,0.7,1.2,0.7h1.3c1.5,0,2.2,0.4,2.2,1.4c0,1.1-1.3,2-3.2,2C94.4,139,93.5,138.4,93.5,137.3z
			 M98.4,137.1c0-0.6-0.4-0.7-1.3-0.7H96c-0.3,0-0.6,0-0.9-0.1c-0.6,0.3-0.7,0.6-0.7,1c0,0.6,0.7,1,1.9,1
			C97.6,138.2,98.4,137.7,98.4,137.1z M97.4,132.4c0-0.8-0.6-1.4-1.3-1.4c-0.7,0-1.3,0.6-1.3,1.4c0,0.8,0.6,1.4,1.3,1.4
			C96.8,133.8,97.4,133.2,97.4,132.4z"/>
		<path d="M100.6,133.3c0-1.9,1.4-3,3-3c1.7,0,2.7,1.1,2.7,2.7c0,0.2,0,0.4,0,0.6h-4.9v-0.8h4.3l-0.3,0.3c0-1.4-0.7-2.1-1.8-2.1
			c-1.1,0-2,0.8-2,2.3s1,2.3,2.3,2.3c0.7,0,1.2-0.2,1.8-0.6l0.4,0.6c-0.6,0.4-1.3,0.7-2.3,0.7C102,136.4,100.6,135.3,100.6,133.3z"
			/>
		<path d="M115.3,127.7h1v2.3l-0.1,1.4l0,0c0.6-0.6,1.3-1.1,2.2-1.1c1.4,0,2,0.8,2,2.4v3.6h-1v-3.5c0-1.1-0.4-1.6-1.3-1.6
			c-0.7,0-1.2,0.3-1.8,1v4.1h-1C115.3,136.3,115.3,127.7,115.3,127.7z"/>
		<path d="M122.4,134.8c0-1.3,1.2-1.9,4.2-2.2c0-0.8-0.4-1.5-1.5-1.5c-0.8,0-1.5,0.4-2,0.7l-0.4-0.7c0.6-0.4,1.6-0.8,2.6-0.8
			c1.6,0,2.4,0.9,2.4,2.4v3.6h-0.8l-0.1-0.8l0,0c-0.6,0.5-1.5,0.9-2.3,0.9C123.3,136.4,122.4,135.8,122.4,134.8z M126.6,134.7v-1.5
			c-2.5,0.2-3.3,0.7-3.3,1.5c0,0.7,0.6,0.9,1.3,0.9C125.3,135.6,125.9,135.3,126.6,134.7z"/>
		<path d="M129.5,135.5l0.5-0.7c0.7,0.5,1.5,0.8,2.5,0.8s1.5-0.4,1.5-0.9c0-0.4-0.2-0.8-1.8-1.1c-1.5-0.3-2.3-0.8-2.3-1.7
			s0.8-1.7,2.4-1.7c0.9,0,1.8,0.3,2.4,0.7l-0.5,0.6c-0.5-0.4-1.2-0.6-2-0.6c-1,0-1.3,0.4-1.3,0.8c0,0.5,0.5,0.7,1.7,1
			c1.9,0.4,2.4,0.9,2.4,1.8c0,0.9-0.9,1.7-2.6,1.7C131.2,136.4,130.2,136,129.5,135.5z"/>
		<path d="M145,135.6L145,135.6l-0.1,0.6h-0.8v-8.5h1v2.3v1.1l0,0c0.5-0.5,1.3-0.9,2-0.9c1.6,0,2.4,1.2,2.4,3c0,2-1.2,3.2-2.6,3.2
			C146.3,136.4,145.6,136.1,145,135.6z M148.5,133.3c0-1.3-0.5-2.1-1.6-2.1c-0.5,0-1.1,0.3-1.7,0.9v2.9c0.5,0.5,1.2,0.7,1.6,0.7
			C147.7,135.6,148.5,134.7,148.5,133.3z"/>
		<path d="M151,133.3c0-1.9,1.4-3,3-3c1.7,0,2.7,1.1,2.7,2.7c0,0.2,0,0.4,0,0.6h-4.9v-0.8h4.3l-0.3,0.3c0-1.4-0.7-2.1-1.8-2.1
			s-2,0.8-2,2.3s1,2.3,2.3,2.3c0.7,0,1.2-0.2,1.8-0.6l0.4,0.6c-0.6,0.4-1.3,0.7-2.3,0.7C152.4,136.4,151,135.3,151,133.3z"/>
		<path d="M158.2,133.3c0-1.9,1.4-3,3-3c1.7,0,2.7,1.1,2.7,2.7c0,0.2,0,0.4,0,0.6H159v-0.8h4.3l-0.3,0.3c0-1.4-0.7-2.1-1.8-2.1
			s-2,0.8-2,2.3s1,2.3,2.3,2.3c0.7,0,1.2-0.2,1.8-0.6l0.4,0.6c-0.6,0.4-1.3,0.7-2.3,0.7C159.6,136.4,158.2,135.3,158.2,133.3z"/>
		<path d="M165.7,130.4h0.8l0.1,1l0,0c0.6-0.6,1.3-1.1,2.2-1.1c1.4,0,2,0.8,2,2.4v3.6h-1v-3.5c0-1.1-0.4-1.6-1.3-1.6
			c-0.7,0-1.2,0.3-1.8,1v4.1h-1V130.4z"/>
		<path d="M64.7,151.7c0-0.5,0.3-0.9,1-1.3l0,0c-0.3-0.2-0.6-0.5-0.6-1c0-0.4,0.3-0.8,0.7-1.1l0,0c-0.4-0.3-0.7-0.8-0.7-1.5
			c0-1.3,1.1-2.1,2.3-2.1c0.3,0,0.6,0,0.9,0.1h2.4v0.8h-1.5c0.3,0.3,0.5,0.7,0.5,1.2c0,1.2-1,2-2.3,2c-0.3,0-0.7-0.1-1-0.2
			c-0.3,0.2-0.5,0.4-0.5,0.7c0,0.5,0.4,0.7,1.2,0.7h1.3c1.5,0,2.2,0.4,2.2,1.4c0,1.1-1.3,2-3.2,2C65.6,153.4,64.7,152.8,64.7,151.7z
			 M69.6,151.5c0-0.6-0.4-0.7-1.3-0.7h-1.1c-0.3,0-0.6,0-0.9-0.1c-0.6,0.3-0.7,0.6-0.7,1c0,0.6,0.7,1,1.9,1
			C68.8,152.6,69.6,152.1,69.6,151.5z M68.6,146.8c0-0.8-0.6-1.4-1.3-1.4c-0.7,0-1.3,0.6-1.3,1.4c0,0.8,0.6,1.4,1.3,1.4
			S68.6,147.6,68.6,146.8z"/>
		<path d="M72,149.2c0-1.3,1.2-1.9,4.2-2.2c0-0.8-0.4-1.5-1.5-1.5c-0.8,0-1.5,0.4-2,0.7l-0.4-0.7c0.6-0.4,1.6-0.8,2.6-0.8
			c1.6,0,2.4,0.9,2.4,2.4v3.6h-0.8l-0.1-0.8l0,0c-0.6,0.5-1.5,0.9-2.3,0.9C72.9,150.8,72,150.2,72,149.2z M76.2,149.1v-1.5
			c-2.5,0.2-3.3,0.7-3.3,1.5c0,0.7,0.6,0.9,1.3,0.9S75.5,149.7,76.2,149.1z"/>
		<path d="M79.9,144.8h0.8l0.1,1.4l0,0c0.6-0.9,1.5-1.5,2.6-1.5c0.4,0,0.8,0.1,1.2,0.2l-0.2,0.9c-0.4-0.1-0.6-0.2-1.1-0.2
			c-0.9,0-1.7,0.4-2.4,1.7v3.4h-1V144.8z"/>
		<path d="M87.4,150L87.4,150l-0.1,0.6h-0.8v-8.5h1v2.3v1.1l0,0c0.5-0.5,1.3-0.9,2-0.9c1.6,0,2.4,1.2,2.4,3c0,2-1.2,3.2-2.6,3.2
			C88.7,150.8,88,150.5,87.4,150z M90.9,147.7c0-1.3-0.5-2.1-1.6-2.1c-0.5,0-1.1,0.3-1.7,0.9v2.9c0.5,0.5,1.2,0.7,1.6,0.7
			C90.1,150,90.9,149.1,90.9,147.7z"/>
		<path d="M93.6,149.2c0-1.3,1.2-1.9,4.2-2.2c0-0.8-0.4-1.5-1.5-1.5c-0.8,0-1.5,0.4-2,0.7l-0.4-0.7c0.6-0.4,1.6-0.8,2.6-0.8
			c1.6,0,2.4,0.9,2.4,2.4v3.6H98l-0.1-0.8l0,0c-0.6,0.5-1.5,0.9-2.3,0.9C94.5,150.8,93.6,150.2,93.6,149.2z M97.8,149.1v-1.5
			c-2.5,0.2-3.3,0.7-3.3,1.5c0,0.7,0.6,0.9,1.3,0.9C96.5,150,97.1,149.7,97.8,149.1z"/>
		<path d="M100.7,151.7c0-0.5,0.3-0.9,1-1.3l0,0c-0.3-0.2-0.6-0.5-0.6-1c0-0.4,0.3-0.8,0.7-1.1l0,0c-0.4-0.3-0.7-0.8-0.7-1.5
			c0-1.3,1.1-2.1,2.3-2.1c0.3,0,0.6,0,0.9,0.1h2.4v0.8h-1.5c0.3,0.3,0.5,0.7,0.5,1.2c0,1.2-1,2-2.3,2c-0.3,0-0.7-0.1-1-0.2
			c-0.3,0.2-0.5,0.4-0.5,0.7c0,0.5,0.4,0.7,1.2,0.7h1.3c1.5,0,2.2,0.4,2.2,1.4c0,1.1-1.3,2-3.2,2
			C101.6,153.4,100.7,152.8,100.7,151.7z M105.6,151.5c0-0.6-0.4-0.7-1.3-0.7h-1.1c-0.3,0-0.6,0-0.9-0.1c-0.6,0.3-0.7,0.6-0.7,1
			c0,0.6,0.7,1,1.9,1C104.8,152.6,105.6,152.1,105.6,151.5z M104.6,146.8c0-0.8-0.6-1.4-1.3-1.4c-0.7,0-1.3,0.6-1.3,1.4
			c0,0.8,0.6,1.4,1.3,1.4S104.6,147.6,104.6,146.8z"/>
		<path d="M107.8,147.7c0-1.9,1.4-3,3-3c1.7,0,2.7,1.1,2.7,2.7c0,0.2,0,0.4,0,0.6h-4.9v-0.8h4.3l-0.3,0.3c0-1.4-0.7-2.1-1.8-2.1
			c-1.1,0-2,0.8-2,2.3s1,2.3,2.3,2.3c0.7,0,1.2-0.2,1.8-0.6l0.4,0.6c-0.6,0.4-1.3,0.7-2.3,0.7C109.2,150.8,107.8,149.7,107.8,147.7z
			"/>
		<path d="M115.2,146.3h5.2v0.7h-5.2V146.3z"/>
		<path d="M122.4,147.8c0-2,1.5-3.1,3.3-3.1c0.9,0,1.6,0.4,2.1,0.9l-0.5,0.6c-0.5-0.4-1-0.7-1.6-0.7c-1.3,0-2.3,0.9-2.3,2.2
			s0.9,2.2,2.2,2.2c0.7,0,1.3-0.3,1.8-0.7l0.4,0.6c-0.6,0.6-1.5,0.9-2.3,0.9C123.7,150.8,122.4,149.7,122.4,147.8z"/>
		<path d="M129.3,147.8c0-2,1.3-3.1,2.9-3.1s2.9,1.1,2.9,3.1c0,1.9-1.3,3-2.9,3S129.3,149.7,129.3,147.8z M134.1,147.8
			c0-1.3-0.7-2.2-1.9-2.2c-1.1,0-1.9,0.9-1.9,2.2s0.7,2.2,1.9,2.2C133.3,150,134.1,149.1,134.1,147.8z"/>
		<path d="M138.8,148.7v-5.8h-2.1v-0.8h3.1v6.7c0,0.8,0.5,1.2,1.2,1.2c0.3,0,0.7-0.1,1.1-0.3l0.3,0.7c-0.5,0.2-0.9,0.3-1.6,0.3
			C139.4,150.8,138.8,150.1,138.8,148.7z"/>
		<path d="M146,148.7v-5.8h-2.1v-0.8h3.1v6.7c0,0.8,0.5,1.2,1.2,1.2c0.3,0,0.7-0.1,1.1-0.3l0.3,0.7c-0.5,0.2-0.9,0.3-1.6,0.3
			C146.6,150.8,146,150.1,146,148.7z"/>
		<path d="M151,147.7c0-1.9,1.4-3,3-3c1.7,0,2.7,1.1,2.7,2.7c0,0.2,0,0.4,0,0.6h-4.9v-0.8h4.3l-0.3,0.3c0-1.4-0.7-2.1-1.8-2.1
			s-2,0.8-2,2.3s1,2.3,2.3,2.3c0.7,0,1.2-0.2,1.8-0.6l0.4,0.6c-0.6,0.4-1.3,0.7-2.3,0.7C152.4,150.8,151,149.7,151,147.7z"/>
		<path d="M158.4,147.8c0-2,1.5-3.1,3.3-3.1c0.9,0,1.6,0.4,2.1,0.9l-0.5,0.6c-0.5-0.4-1-0.7-1.6-0.7c-1.3,0-2.3,0.9-2.3,2.2
			s0.9,2.2,2.2,2.2c0.7,0,1.3-0.3,1.8-0.7l0.4,0.6c-0.6,0.6-1.5,0.9-2.3,0.9C159.7,150.8,158.4,149.7,158.4,147.8z"/>
		<path d="M167.1,148.4v-2.8h-1.7v-0.7l1.7-0.1l0.1-1.9h0.8v1.9h2.9v0.8H168v2.8c0,1,0.3,1.6,1.5,1.6c0.5,0,1-0.1,1.4-0.3l0.2,0.7
			c-0.5,0.2-1.1,0.3-1.8,0.3C167.6,150.8,167.1,149.8,167.1,148.4z"/>
		<path d="M172.6,147.7c0-1.9,1.4-3,3-3c1.7,0,2.7,1.1,2.7,2.7c0,0.2,0,0.4,0,0.6h-4.9v-0.8h4.3l-0.3,0.3c0-1.4-0.7-2.1-1.8-2.1
			s-2,0.8-2,2.3s1,2.3,2.3,2.3c0.7,0,1.2-0.2,1.8-0.6l0.4,0.6c-0.6,0.4-1.3,0.7-2.3,0.7C174,150.8,172.6,149.7,172.6,147.7z"/>
		<path d="M179.7,147.8c0-1.9,1.3-3.1,2.6-3.1c0.7,0,1.2,0.3,1.8,0.7l0,0v-1.1v-2.2h1v8.5h-0.8l-0.1-0.8l0,0
			c-0.5,0.5-1.2,0.9-1.9,0.9C180.7,150.8,179.7,149.7,179.7,147.8z M184.1,149.1v-2.9c-0.5-0.5-1-0.7-1.5-0.7c-1,0-1.8,0.9-1.8,2.2
			c0,1.4,0.6,2.2,1.7,2.2C183,150,183.6,149.7,184.1,149.1z"/>
	</g>
</g>
<g>
	<polyline class="st0" points="171.1,68 159.1,94 181.1,94 181.1,118 	"/>
	<polyline class="st0" points="80.9,68.5 68.9,94.5 90.9,94.5 90.9,118.5 	"/>
	<g>
		<rect x="111.9" y="68.5" class="st0" width="26" height="50"/>
		<line class="st1" x1="138" y1="68.9" x2="112" y2="118.9"/>
		<line class="st1" x1="112.4" y1="69" x2="138.4" y2="119"/>
	</g>
</g>
</svg>
