<svg id="Layer_1" data-name="Layer 1" xmlns="http://www.w3.org/2000/svg" viewBox="0 0 147.5 75"><rect x="61.5" y="1" width="26" height="50" style="fill:#fff;stroke:#000;stroke-miterlimit:10"/><line x1="87.6" y1="1.4" x2="61.6" y2="51.4" style="fill:none;stroke:#000;stroke-miterlimit:10"/><line x1="62" y1="1.5" x2="88" y2="51.5" style="fill:none;stroke:#000;stroke-miterlimit:10"/><polyline points="44 0.5 25.2 0.5 14.7 26.5 36.1 26.5 29.3 50.5 9.2 50.5" style="fill:#fff;stroke:#000;stroke-miterlimit:10"/><path d="M179.1,105.6c-7.7-7.8-15.4-15.7-23.1-23.5" transform="translate(-50.4 -67.5)" style="fill:#fff;stroke:#000;stroke-miterlimit:10"/><path d="M155.9,105.6c7.7-7.8,15.4-15.7,23.1-23.5" transform="translate(-50.4 -67.5)" style="fill:#fff;stroke:#000;stroke-miterlimit:10"/><path d="M50.4,137a3,3,0,0,1,3.3-3.1,2.93,2.93,0,0,1,2.1.9l-.5.6a2.57,2.57,0,0,0-1.6-.7,2.18,2.18,0,0,0-2.3,2.2,2.1,2.1,0,0,0,2.2,2.2,2.87,2.87,0,0,0,1.8-.7l.4.6a3.34,3.34,0,0,1-2.3.9A2.69,2.69,0,0,1,50.4,137Z" transform="translate(-50.4 -67.5)"/><path d="M58.3,134.1h.8l.1,1.4h0a3.11,3.11,0,0,1,2.6-1.5,5,5,0,0,1,1.2.2l-.2.9a3.59,3.59,0,0,0-1.1-.2,2.63,2.63,0,0,0-2.4,1.7V140h-1Z" transform="translate(-50.4 -67.5)"/><path d="M64.8,138.4c0-1.3,1.2-1.9,4.2-2.2a1.36,1.36,0,0,0-1.5-1.5,4,4,0,0,0-2,.7l-.4-.7a5,5,0,0,1,2.6-.8,2.16,2.16,0,0,1,2.4,2.4v3.6h-.8l-.1-.8h0a3.88,3.88,0,0,1-2.3.9A1.74,1.74,0,0,1,64.8,138.4Zm4.2,0v-1.5c-2.5.2-3.3.7-3.3,1.5s.6.9,1.3.9A3.59,3.59,0,0,0,69,138.4Z" transform="translate(-50.4 -67.5)"/><path d="M72.1,134.1h.8l.1.7h0a3.08,3.08,0,0,1,2-.9c1.6,0,2.4,1.2,2.4,3,0,2-1.2,3.1-2.7,3.1a2.67,2.67,0,0,1-1.7-.8h0v3.1H72v-8.2Zm4.4,2.8c0-1.3-.5-2.1-1.6-2.1a2.59,2.59,0,0,0-1.7.9v2.9a2.47,2.47,0,0,0,1.5.7C75.7,139.2,76.5,138.4,76.5,136.9Z" transform="translate(-50.4 -67.5)"/><path d="M79.3,134.1h.8l.1.7h0a3.08,3.08,0,0,1,2-.9c1.6,0,2.4,1.2,2.4,3,0,2-1.2,3.1-2.7,3.1a2.67,2.67,0,0,1-1.7-.8h0v3.1h-1v-8.2Zm4.4,2.8c0-1.3-.5-2.1-1.6-2.1a2.59,2.59,0,0,0-1.7.9v2.9a2.47,2.47,0,0,0,1.5.7C82.9,139.2,83.7,138.4,83.7,136.9Z" transform="translate(-50.4 -67.5)"/><path d="M86.2,142.3l.2-.8c.2,0,.3.1.5.1a1.71,1.71,0,0,0,1.6-1.2l.2-.4L86,134.2h1l1.4,3.2c.2.5.5,1.1.7,1.7h0c.2-.6.4-1.2.6-1.7l1.3-3.2h1l-2.6,6.3a2.48,2.48,0,0,1-2.5,2C86.7,142.4,86.4,142.4,86.2,142.3Z" transform="translate(-50.4 -67.5)"/><path d="M99.9,134.1h1l.7,3.4c.1.6.2,1.1.3,1.6h0c.1-.6.2-1.1.3-1.6l.7-3h1l.7,3c.1.6.3,1.1.4,1.6h0c.1-.6.2-1.1.3-1.6l.7-3.4h.9l-1.2,5.8h-1.3l-.7-2.8c-.1-.4-.2-1-.3-1.7h0c-.1.7-.2,1.3-.3,1.7l-.6,2.8h-1.3Z" transform="translate(-50.4 -67.5)"/><path d="M107.8,137a2.89,2.89,0,0,1,3-3,2.52,2.52,0,0,1,2.7,2.7v.6h-4.9v-.8h4.3l-.3.3c0-1.4-.7-2.1-1.8-2.1a2,2,0,0,0-2,2.3,2.15,2.15,0,0,0,2.3,2.3,3,3,0,0,0,1.8-.6l.4.6a3.93,3.93,0,0,1-2.3.7A2.89,2.89,0,0,1,107.8,137Z" transform="translate(-50.4 -67.5)"/><path d="M116.2,139.3h0l-.1.6h-.8v-8.5h1v3.4h0a3.08,3.08,0,0,1,2-.9c1.6,0,2.4,1.2,2.4,3,0,2-1.2,3.2-2.6,3.2A3.15,3.15,0,0,1,116.2,139.3Zm3.5-2.4c0-1.3-.5-2.1-1.6-2.1a2.59,2.59,0,0,0-1.7.9v2.9a2.47,2.47,0,0,0,1.6.7C118.9,139.2,119.7,138.4,119.7,136.9Z" transform="translate(-50.4 -67.5)"/><path d="M122.3,139.1l.5-.7a4.15,4.15,0,0,0,2.5.8c1,0,1.5-.4,1.5-.9s-.2-.8-1.8-1.1-2.3-.8-2.3-1.7.8-1.7,2.4-1.7a4.53,4.53,0,0,1,2.4.7l-.5.6a3.17,3.17,0,0,0-2-.6c-1,0-1.3.4-1.3.8s.5.7,1.7,1c1.9.4,2.4.9,2.4,1.8s-.9,1.7-2.6,1.7A3.47,3.47,0,0,1,122.3,139.1Z" transform="translate(-50.4 -67.5)"/><path d="M132.4,134.9h-2.7v-.8h3.7v5.8h-1Zm-.4-2.8a.8.8,0,1,1,.8.8A.74.74,0,0,1,132,132.1Z" transform="translate(-50.4 -67.5)"/><path d="M138.3,137.6v-2.8h-1.7v-.7l1.7-.1.1-1.9h.8V134h2.9v.8h-2.9v2.8c0,1,.3,1.6,1.5,1.6a3.19,3.19,0,0,0,1.4-.3l.2.7a4.84,4.84,0,0,1-1.8.3C138.8,140.1,138.3,139.1,138.3,137.6Z" transform="translate(-50.4 -67.5)"/><path d="M143.8,137a2.89,2.89,0,0,1,3-3,2.52,2.52,0,0,1,2.7,2.7v.6h-4.9v-.8h4.3l-.3.3c0-1.4-.7-2.1-1.8-2.1a2,2,0,0,0-2,2.3,2.15,2.15,0,0,0,2.3,2.3,3,3,0,0,0,1.8-.6l.4.6a3.93,3.93,0,0,1-2.3.7A2.89,2.89,0,0,1,143.8,137Z" transform="translate(-50.4 -67.5)"/><path d="M158.4,138.4c0-1.3,1.2-1.9,4.2-2.2a1.36,1.36,0,0,0-1.5-1.5,4,4,0,0,0-2,.7l-.4-.7a5,5,0,0,1,2.6-.8,2.16,2.16,0,0,1,2.4,2.4v3.6h-.8l-.1-.8h0a3.88,3.88,0,0,1-2.3.9A1.74,1.74,0,0,1,158.4,138.4Zm4.2,0v-1.5c-2.5.2-3.3.7-3.3,1.5s.6.9,1.3.9A3.59,3.59,0,0,0,162.6,138.4Z" transform="translate(-50.4 -67.5)"/><path d="M167.5,138v-5.8h-2.1v-.8h3.1v6.7a1.1,1.1,0,0,0,1.2,1.2,2.61,2.61,0,0,0,1.1-.3l.3.7a3.81,3.81,0,0,1-1.6.3C168.2,140.1,167.5,139.3,167.5,138Z" transform="translate(-50.4 -67.5)"/><path d="M172.6,137a2.89,2.89,0,0,1,3-3,2.52,2.52,0,0,1,2.7,2.7v.6h-4.9v-.8h4.3l-.3.3c0-1.4-.7-2.1-1.8-2.1a2,2,0,0,0-2,2.3,2.15,2.15,0,0,0,2.3,2.3,3,3,0,0,0,1.8-.6l.4.6a3.93,3.93,0,0,1-2.3.7A2.89,2.89,0,0,1,172.6,137Z" transform="translate(-50.4 -67.5)"/><path d="M180.7,134.1h.8l.1,1.4h0a3.11,3.11,0,0,1,2.6-1.5,5,5,0,0,1,1.2.2l-.2.9a3.59,3.59,0,0,0-1.1-.2,2.63,2.63,0,0,0-2.4,1.7V140h-1v-5.9Z" transform="translate(-50.4 -67.5)"/><path d="M188.7,137.6v-2.8H187v-.7l1.7-.1.1-1.9h.8V134h2.9v.8h-2.9v2.8c0,1,.3,1.6,1.5,1.6a3.19,3.19,0,0,0,1.4-.3l.2.7a4.84,4.84,0,0,1-1.8.3C189.2,140.1,188.7,139.1,188.7,137.6Z" transform="translate(-50.4 -67.5)"/><path d="M196.1,139.1a.9.9,0,1,1,.9.9C196.5,140.1,196.1,139.7,196.1,139.1Zm.4-6.1v-1.1h1V133l-.1,4.1h-.7Z" transform="translate(-50.4 -67.5)"/></svg>